<svg width="55" height="55" viewBox="0 0 55 55" fill="none" xmlns="http://www.w3.org/2000/svg">
<circle cx="27.5" cy="27.5" r="27.5" fill="#FFF0E9"/>
<g clip-path="url(#clip0)">
<path d="M27.0551 20.8125C23.0662 20.8125 19.8488 24.0187 19.8488 27.9937C19.8488 31.9687 23.0662 35.175 27.0551 35.175C31.0439 35.175 34.2613 31.9687 34.2613 27.9937C34.2613 24.0187 31.0439 20.8125 27.0551 20.8125ZM27.0551 32.6625C24.4774 32.6625 22.37 30.5687 22.37 27.9937C22.37 25.4187 24.4711 23.325 27.0551 23.325C29.639 23.325 31.7401 25.4187 31.7401 27.9937C31.7401 30.5687 29.6328 32.6625 27.0551 32.6625ZM36.2369 20.5187C36.2369 21.45 35.4843 22.1937 34.5561 22.1937C33.6216 22.1937 32.8753 21.4437 32.8753 20.5187C32.8753 19.5937 33.6279 18.8437 34.5561 18.8437C35.4843 18.8437 36.2369 19.5937 36.2369 20.5187ZM41.0098 22.2187C40.9031 19.975 40.3888 17.9875 38.7394 16.35C37.0962 14.7125 35.1017 14.2 32.8502 14.0875C30.5296 13.9562 23.5742 13.9562 21.2537 14.0875C19.0084 14.1937 17.0139 14.7062 15.3645 16.3437C13.715 17.9812 13.207 19.9687 13.0941 22.2125C12.9624 24.525 12.9624 31.4562 13.0941 33.7687C13.2007 36.0125 13.715 38 15.3645 39.6375C17.0139 41.275 19.0021 41.7875 21.2537 41.9C23.5742 42.0312 30.5296 42.0312 32.8502 41.9C35.1017 41.7937 37.0962 41.2812 38.7394 39.6375C40.3826 38 40.8969 36.0125 41.0098 33.7687C41.1415 31.4562 41.1415 24.5312 41.0098 22.2187ZM38.0118 36.25C37.5226 37.475 36.5756 38.4187 35.3401 38.9125C33.4899 39.6437 29.0997 39.475 27.0551 39.475C25.0105 39.475 20.6139 39.6375 18.77 38.9125C17.5408 38.425 16.5937 37.4812 16.0983 36.25C15.3645 34.4062 15.5338 30.0312 15.5338 27.9937C15.5338 25.9562 15.3707 21.575 16.0983 19.7375C16.5875 18.5125 17.5345 17.5687 18.77 17.075C20.6202 16.3437 25.0105 16.5125 27.0551 16.5125C29.0997 16.5125 33.4962 16.35 35.3401 17.075C36.5693 17.5625 37.5164 18.5062 38.0118 19.7375C38.7456 21.5812 38.5763 25.9562 38.5763 27.9937C38.5763 30.0312 38.7456 34.4125 38.0118 36.25Z" fill="#4A4A4A"/>
</g>
<defs>
<clipPath id="clip0">
<rect width="28.0976" height="32" fill="white" transform="translate(13 12)"/>
</clipPath>
</defs>
</svg>
