<svg width="55" height="55" viewBox="0 0 55 55" fill="none" xmlns="http://www.w3.org/2000/svg">
<circle cx="27.5" cy="27.5" r="27.5" fill="#FFF0E9"/>
<path d="M42.5364 19.9569C42.1875 18.6309 41.1593 17.5866 39.854 17.2322C37.4878 16.5883 28 16.5883 28 16.5883C28 16.5883 18.5122 16.5883 16.1461 17.2322C14.8407 17.5867 13.8126 18.6309 13.4636 19.9569C12.8296 22.3603 12.8296 27.3747 12.8296 27.3747C12.8296 27.3747 12.8296 32.3892 13.4636 34.7925C13.8126 36.1185 14.8407 37.1193 16.1461 37.4737C18.5122 38.1177 28 38.1177 28 38.1177C28 38.1177 37.4878 38.1177 39.854 37.4737C41.1593 37.1193 42.1875 36.1185 42.5364 34.7925C43.1704 32.3892 43.1704 27.3747 43.1704 27.3747C43.1704 27.3747 43.1704 22.3603 42.5364 19.9569ZM24.897 31.9275V22.822L32.8269 27.3748L24.897 31.9275Z" fill="#4A4A4A"/>
</svg>
