<svg width="55" height="55" viewBox="0 0 55 55" fill="none" xmlns="http://www.w3.org/2000/svg">
<circle cx="27.5" cy="27.5" r="27.5" fill="#FFF0E9"/>
<g clip-path="url(#clip0)">
<path d="M43.5644 38.6658L37.3329 32.4363C37.0512 32.1541 36.6702 31.9989 36.2701 31.9989H35.2512C36.9762 29.7924 38.0012 27.0182 38.0012 24.0002C38.0012 16.8192 32.1818 11.001 24.9998 11.001C17.8184 11.001 11.999 16.8197 11.999 24.0002C11.999 31.1801 17.8184 36.9983 24.9998 36.9983C28.019 36.9983 30.7944 35.9734 33.0008 34.2483V35.2669C33.0008 35.667 33.1566 36.0485 33.4382 36.3295L39.6697 42.5602C40.2573 43.1477 41.2078 43.1477 41.7886 42.5602L43.5576 40.7911C44.1457 40.203 44.1457 39.2533 43.5644 38.6658ZM25.0004 31.9983C20.5814 31.9983 17 28.4239 17 23.9996C17 19.581 20.5751 15.9998 25.0004 15.9998C29.42 15.9998 33.0014 19.5742 33.0014 23.9996C33.0014 28.4171 29.4262 31.9983 25.0004 31.9983Z" fill="#4A4A4A"/>
</g>
<defs>
<clipPath id="clip0">
<rect width="32" height="32" fill="white" transform="translate(12 11)"/>
</clipPath>
</defs>
</svg>
