<svg width="55" height="55" viewBox="0 0 55 55" fill="none" xmlns="http://www.w3.org/2000/svg">
<circle cx="27.5" cy="27.5" r="27.5" fill="#FFF0E9"/>
<path d="M39.7106 21.4823C39.7309 21.7665 39.7309 22.0508 39.7309 22.3351C39.7309 31.0051 33.132 40.9949 21.0711 40.9949C17.3553 40.9949 13.9036 39.9188 11 38.0508C11.5279 38.1117 12.0355 38.132 12.5837 38.132C15.6497 38.132 18.4721 37.0965 20.7259 35.33C17.8426 35.2691 15.4264 33.3808 14.5939 30.7818C15 30.8426 15.4061 30.8833 15.8325 30.8833C16.4213 30.8833 17.0102 30.802 17.5584 30.6599C14.5533 30.0508 12.2994 27.4112 12.2994 24.2234V24.1422C13.1725 24.6295 14.1878 24.9341 15.2639 24.9746C13.4974 23.7969 12.3401 21.7868 12.3401 19.5127C12.3401 18.2944 12.6649 17.1777 13.2334 16.2031C16.4619 20.1828 21.3147 22.7817 26.7562 23.066C26.6547 22.5787 26.5938 22.0711 26.5938 21.5635C26.5938 17.9493 29.5177 15.0051 33.1522 15.0051C35.0405 15.0051 36.7461 15.797 37.9441 17.0762C39.4262 16.7919 40.8476 16.2437 42.1065 15.4924C41.6191 17.0153 40.5836 18.2945 39.2232 19.1066C40.5431 18.9646 41.8222 18.599 42.9999 18.0914C42.1066 19.3909 40.9898 20.5482 39.7106 21.4823Z" fill="#4A4A4A"/>
</svg>
